<svg width="61" height="67" viewBox="0 0 61 67" fill="none" xmlns="http://www.w3.org/2000/svg">
<path fill-rule="evenodd" clip-rule="evenodd" d="M0.5 22.7481L26.301 37.6443C26.5788 37.8047 26.8701 37.9205 27.1667 37.9941V66.8845L2.34013 52.1921C1.19957 51.5171 0.5 50.2902 0.5 48.9649V22.7481ZM60.5 22.3521V48.9649C60.5 50.2902 59.8004 51.5171 58.6599 52.1921L33.8333 66.8845V37.741C33.8938 37.7107 33.9538 37.6785 34.0131 37.6443L60.5 22.3521Z" fill="#FEC53D"/>
<path opacity="0.499209" fill-rule="evenodd" clip-rule="evenodd" d="M1.31055 15.5181C1.6257 15.1201 2.02347 14.7838 2.48723 14.5368L28.7372 0.555433C29.8392 -0.0314986 31.161 -0.0314986 32.263 0.555433L58.513 14.5368C58.8705 14.7272 59.1888 14.9707 59.4602 15.2545L30.6799 31.8709C30.4906 31.9801 30.3162 32.1051 30.1572 32.2433C29.9981 32.1051 29.8237 31.9801 29.6344 31.8709L1.31055 15.5181Z" fill="#FEC53D"/>
</svg>
