<svg width="57" height="57" viewBox="0 0 57 57" fill="none" xmlns="http://www.w3.org/2000/svg">
<path d="M6.72222 50.2778H53.3889C55.1071 50.2778 56.5 51.6707 56.5 53.3889C56.5 55.1071 55.1071 56.5 53.3889 56.5H3.61111C1.89289 56.5 0.5 55.1071 0.5 53.3889V3.61111C0.5 1.89289 1.89289 0.5 3.61111 0.5C5.32933 0.5 6.72222 1.89289 6.72222 3.61111V50.2778Z" fill="#4AD991"/>
<path opacity="0.5" d="M18.3251 36.8499C17.15 38.1035 15.1811 38.167 13.9276 36.9918C12.6741 35.8166 12.6106 33.8478 13.7858 32.5943L25.4525 20.1499C26.589 18.9376 28.4776 18.8325 29.7416 19.9111L38.9497 27.7687L50.9469 12.5721C52.0116 11.2235 53.968 10.9934 55.3166 12.0581C56.6652 13.1227 56.8953 15.0791 55.8306 16.4277L41.8306 34.161C40.7371 35.5461 38.7117 35.7454 37.3693 34.5998L27.9611 26.5715L18.3251 36.8499Z" fill="#4AD991"/>
</svg>
