<svg width="57" height="59" viewBox="0 0 57 59" fill="none" xmlns="http://www.w3.org/2000/svg">
<path opacity="0.78" fill-rule="evenodd" clip-rule="evenodd" d="M25.7623 18.2983C25.8024 17.7773 26.2368 17.375 26.7594 17.375H27.595C28.1088 17.375 28.5389 17.7643 28.5901 18.2755L29.8334 30.7083L38.6628 35.7537C38.9744 35.9318 39.1667 36.2631 39.1667 36.622V37.3991C39.1667 38.0585 38.5397 38.5373 37.9036 38.3638L25.2973 34.9258C24.8346 34.7996 24.5266 34.3626 24.5634 33.8843L25.7623 18.2983Z" fill="#FF9066"/>
<path opacity="0.901274" fill-rule="evenodd" clip-rule="evenodd" d="M13.9435 0.649349C13.4153 0.0198528 12.3954 0.260792 12.2048 1.06012L8.93782 14.7564C8.78247 15.4077 9.29861 16.0247 9.96711 15.9868L24.0566 15.1884C24.8784 15.1418 25.2952 14.1778 24.7661 13.5472L21.1633 9.25351C23.493 8.45741 25.9634 8.04161 28.5 8.04161C41.0185 8.04161 51.1667 18.1898 51.1667 30.7083C51.1667 43.2267 41.0185 53.3749 28.5 53.3749C15.9815 53.3749 5.83333 43.2267 5.83333 30.7083C5.83333 28.6067 6.11792 26.5484 6.67283 24.5702L1.53769 23.1298C0.861585 25.5401 0.5 28.082 0.5 30.7083C0.5 46.1722 13.036 58.7083 28.5 58.7083C43.964 58.7083 56.5 46.1722 56.5 30.7083C56.5 15.2443 43.964 2.70827 28.5 2.70827C24.6103 2.70827 20.9058 3.50143 17.5395 4.93483L13.9435 0.649349Z" fill="#FF9066"/>
</svg>
